<?xml version="1.0" standalone="no"?><!DOCTYPE svg PUBLIC "-//W3C//DTD SVG 1.1//EN" "http://www.w3.org/Graphics/SVG/1.1/DTD/svg11.dtd"><svg t="1512285347003" class="icon" style="" viewBox="0 0 1024 1024" version="1.1" xmlns="http://www.w3.org/2000/svg" p-id="2028" xmlns:xlink="http://www.w3.org/1999/xlink" width="64" height="64"><defs><style type="text/css"></style></defs><path d="M604.685959 828.826855c-12.741185 0-25.146727-5.587252-34.036187-15.328104-8.201799-8.987698-12.818957-20.570501-13.065574-32.717146l-0.049119-0.001023 0-99.085716 0.037862-0.662079c0.005117-0.170892 0.001023-0.388856 0.001023-0.615007 0-0.206708 0.00307-0.401136-0.002047-0.595564l-0.025583-0.591471c-0.554632-17.71036-14.95255-32.119535-32.095999-32.119535l-0.002047-0.045025c-83.145675 1.806135-143.162584 8.93244-194.442504 23.076578-60.822251 16.776082-111.035886 44.560892-153.512303 84.943624l-2.943029 2.797719c-0.716314 0.695848-1.432629 1.39579-2.15406 2.106987l-1.194198 1.176802-1.74269 1.27197c-7.883551 5.560646-17.131169 8.499581-26.745131 8.499581-25.959232 0-47.078225-21.567201-47.078225-48.077995-0.00307-7.15905 1.511423-14.046924 4.503571-20.464077 38.737256-85.677335 88.091314-157.226904 146.700153-212.674751 79.821977-75.517951 174.98229-119.017674 282.8316-129.289622 15.382339-1.682315 27.357068-15.388479 27.872814-31.9292l0.028653-0.636496c0.00307-0.141216-0.001023-0.366344-0.001023-0.599657 0-0.201591 0.00307-0.391926-0.002047-0.586354l-0.036839-1.308809 0-78.692247 0.049119-0.001023c0.245593-12.124132 4.852518-23.702841 13.032828-32.704866 8.896624-9.78997 21.314445-15.404852 34.06791-15.404852 11.001565 0 21.739117 3.998057 30.235628 11.257391l0.453325 0.397043c0.329505 0.288572 0.841158 0.738827 1.445932 1.331321L891.359051 448.241884c0.537236 0.441045 1.055029 0.906649 1.551332 1.39579l3.337002 3.13541c15.012925 15.061021 23.281239 35.218106 23.281239 56.756655 0 18.844184-6.515391 37.072337-18.34788 51.325969l-0.801249 0.966001-10.159384 9.829879L638.248356 814.486242c-0.76748 0.827855-1.546216 1.583055-2.351558 2.282996C627.264187 824.549435 616.201224 828.826855 604.685959 828.826855zM603.584881 779.756253l0.038886 0.001023c0 1.387603 0.776689 2.495844 1.269923 2.929726l0.052189-0.060375L866.427218 530.597567c4.554736-5.881964 7.051603-13.31833 7.051603-21.066805 0-9.079796-3.356444-17.529235-9.465582-23.858384l-0.046049-0.019443L604.888574 244.745167c-0.509606 0.472767-1.266853 1.586125-1.266853 2.958378l-0.038886 0.001023 0 77.117378c0.038886 0.975211 0.038886 1.804089 0.038886 2.446725 0 0.756223 0 1.76725-0.059352 2.951215-1.364067 39.336914-31.05018 71.994708-69.162196 76.019371l-0.240477 0.024559c-97.436146 9.253758-183.456289 48.587602-255.673054 116.910687-54.272068 51.345412-100.180654 118.075209-136.450718 198.335161l-0.155543 0.337691c-0.083911 0.178055-0.195451 0.475837-0.194428 1.00284 0 1.115404 0.51063 1.741667 0.829901 1.956561 1.049912-1.019213 2.098801-2.029216 3.158946-3.044336l6.67605-6.386454 0.233314 0c99.43671-90.332355 221.475184-111.206778 373.409548-114.379027l0.00307 0.068562c41.416272 0.295735 76.095096 34.43937 77.567633 76.428693 0.060375 1.178849 0.060375 2.176572 0.060375 2.923586 0 0.648776 0 1.486864-0.038886 2.478448L603.585905 779.756253z" p-id="2029" fill="#8a8a8a"></path></svg>