<?xml version="1.0" standalone="no"?><!DOCTYPE svg PUBLIC "-//W3C//DTD SVG 1.1//EN" "http://www.w3.org/Graphics/SVG/1.1/DTD/svg11.dtd"><svg t="1512285358392" class="icon" style="" viewBox="0 0 1024 1024" version="1.1" xmlns="http://www.w3.org/2000/svg" p-id="2253" xmlns:xlink="http://www.w3.org/1999/xlink" width="64" height="64"><defs><style type="text/css"></style></defs><path d="M327.6 355.4m-54.9 0a54.9 54.9 0 1 0 109.8 0 54.9 54.9 0 1 0-109.8 0Z" p-id="2254" fill="#8a8a8a"></path><path d="M697.9 355.4m-54.9 0a54.9 54.9 0 1 0 109.8 0 54.9 54.9 0 1 0-109.8 0Z" p-id="2255" fill="#8a8a8a"></path><path d="M511.8 723.5 511.8 723.5c0.1 0 0.1 0 0.2 0s0.1 0 0.2 0l0 0c119.5-0.2 219.8-76.7 248.5-180.2-0.5-18.2-10.1-36.3-33-36.3-22.8 0-33 17.8-39.6 36.3-28.5 64.8-96.6 110.5-176.1 110.6-79.5-0.1-147.6-45.8-176.1-110.6-6.6-18.5-16.8-36.3-39.6-36.3-22.8 0-32.5 18-33 36.3C291.9 646.8 392.3 723.3 511.8 723.5z" p-id="2256" fill="#8a8a8a"></path><path d="M512 80c58.4 0 114.9 11.4 168.1 33.9 51.4 21.8 97.6 52.9 137.3 92.6 39.7 39.7 70.9 85.9 92.6 137.3C932.6 397.1 944 453.6 944 512s-11.4 114.9-33.9 168.1c-21.8 51.4-52.9 97.6-92.6 137.3-39.7 39.7-85.9 70.9-137.3 92.6C626.9 932.6 570.4 944 512 944s-114.9-11.4-168.1-33.9c-51.4-21.8-97.6-52.9-137.3-92.6-39.7-39.7-70.9-85.9-92.6-137.3C91.4 626.9 80 570.4 80 512s11.4-114.9 33.9-168.1c21.8-51.4 52.9-97.6 92.6-137.3 39.7-39.7 85.9-70.9 137.3-92.6C397.1 91.4 453.6 80 512 80M512 0C229.2 0 0 229.2 0 512s229.2 512 512 512 512-229.2 512-512S794.8 0 512 0L512 0z" p-id="2257" fill="#8a8a8a"></path></svg>